<svg width="100.000000pt" height="180.000000pt" viewBox="0 0 100.000000 180.000000" xmlns="http://www.w3.org/2000/svg">
  <g transform="translate(0.000000,180.000000) scale(0.100000,-0.100000)" fill="#fefeff" stroke="none">
    <path d="M0 900 l0 -900 500 0 500 0 0 900 0 900 -500 0 -500 0 0 -900z m921
801 l39 -39 0 -38 c-1 -22 -6 -49 -13 -62 -7 -13 -141 -163 -298 -333 -156
-171 -285 -316 -287 -324 -2 -7 130 -157 292 -334 200 -218 299 -333 304 -354
5 -18 5 -45 1 -62 -5 -16 -24 -45 -44 -63 -23 -21 -45 -32 -64 -32 -17 0 -41
5 -55 11 -14 7 -180 180 -368 386 -231 251 -347 385 -356 410 l-13 36 12 34
c7 21 131 164 350 403 187 203 352 376 367 384 15 9 42 15 61 16 l33 0 39 -39z" />
  </g>
  <g transform="translate(0.000000,180.000000) scale(0.100000,-0.100000)" fill="#f495ff" stroke="none">
    <path d="M784 1736 c-19 -9 -166 -160 -372 -385 l-341 -372 -12 -38 -12 -39
14 -41 14 -41 344 -375 344 -375 39 -10 c26 -8 50 -8 77 0 23 6 51 23 65 41
l26 31 0 49 c0 28 -5 59 -11 70 -5 11 -141 162 -300 336 l-290 316 29 31 c16
17 143 155 282 306 139 151 261 289 271 305 11 18 19 48 19 76 0 32 -7 55 -22
74 -12 15 -36 34 -54 41 -19 8 -44 14 -56 14 -13 -1 -37 -7 -54 -14z" />
  </g>
  <g transform="translate(0.000000,180.000000) scale(0.100000,-0.100000)" fill="#fce9fe" stroke="none">
    <path d="M771 1729 c-18 -11 -31 -22 -29 -24 2 -3 23 5 46 16 23 12 42 23 42
25 0 2 -6 4 -12 4 -7 0 -28 -9 -47 -21z" />
    <path d="M860 1741 c0 -5 10 -11 23 -15 12 -3 27 -6 32 -6 6 1 1 7 -9 15 -11
8 -26 15 -33 15 -7 0 -13 -4 -13 -9z" />
    <path d="M940 1694 c0 -5 7 -19 15 -30 8 -10 15 -14 15 -8 0 5 -7 19 -15 30
-8 10 -15 14 -15 8z" />
    <path d="M675 1640 c-21 -22 -36 -42 -34 -45 3 -2 23 13 44 35 21 22 36 42 34
45 -3 2 -23 -13 -44 -35z" />
    <path d="M957 1583 c-4 -3 -7 -11 -7 -17 0 -6 5 -5 12 2 6 6 9 14 7 17 -3 3
-9 2 -12 -2z" />
    <path d="M570 1525 c-18 -19 -31 -37 -29 -40 3 -2 21 11 39 30 18 19 31 37 29
40 -3 2 -21 -11 -39 -30z" />
    <path d="M937 1543 c-4 -3 -7 -11 -7 -17 0 -6 5 -5 12 2 6 6 9 14 7 17 -3 3
-9 2 -12 -2z" />
    <path d="M860 1455 c-13 -14 -21 -27 -18 -30 2 -3 15 6 28 20 13 14 21 27 18
30 -2 3 -15 -6 -28 -20z" />
    <path d="M457 1402 c-20 -21 -37 -42 -37 -47 0 -5 14 4 31 21 17 16 35 37 40
47 5 9 8 17 6 17 -1 0 -20 -17 -40 -38z" />
    <path d="M750 1335 c-13 -14 -21 -27 -18 -30 2 -3 15 6 28 20 13 14 21 27 18
30 -2 3 -15 -6 -28 -20z" />
    <path d="M347 1282 c-20 -21 -37 -42 -37 -47 0 -5 14 4 31 21 17 16 35 37 40
47 5 9 8 17 6 17 -1 0 -20 -17 -40 -38z" />
    <path d="M640 1215 c-13 -14 -21 -27 -18 -30 2 -3 15 6 28 20 13 14 21 27 18
30 -2 3 -15 -6 -28 -20z" />
    <path d="M237 1162 c-20 -21 -37 -42 -37 -47 0 -5 14 4 31 21 17 16 35 37 40
47 5 9 8 17 6 17 -1 0 -20 -17 -40 -38z" />
    <path d="M530 1095 c-13 -14 -21 -27 -18 -30 2 -3 15 6 28 20 13 14 21 27 18
30 -2 3 -15 -6 -28 -20z" />
    <path d="M115 1029 c-20 -23 -43 -56 -51 -75 -8 -18 -14 -42 -14 -53 0 -11 4
-23 10 -26 5 -3 7 0 4 9 -3 8 0 32 6 52 7 21 31 57 53 81 22 24 38 46 35 48
-3 3 -22 -13 -43 -36z" />
    <path d="M418 973 c-8 -10 -19 -25 -23 -33 -4 -8 5 -3 21 12 15 15 26 30 23
33 -3 3 -13 -3 -21 -12z" />
    <path d="M360 902 c0 -5 7 -15 15 -22 8 -7 15 -8 15 -2 0 5 -7 15 -15 22 -8 7
-15 8 -15 2z" />
    <path d="M60 851 c0 -5 9 -19 20 -32 l21 -24 -16 33 c-8 17 -18 32 -20 32 -3
0 -5 -4 -5 -9z" />
    <path d="M420 834 c0 -6 16 -25 35 -44 19 -19 35 -29 35 -24 0 6 -16 25 -35
44 -19 19 -35 29 -35 24z" />
    <path d="M140 753 c0 -5 11 -20 25 -33 14 -13 25 -19 25 -13 0 5 -11 20 -25
33 -14 13 -25 19 -25 13z" />
    <path d="M538 705 c6 -11 24 -33 41 -49 17 -17 31 -25 31 -20 0 6 -19 28 -41
49 -23 22 -37 31 -31 20z" />
    <path d="M250 633 c0 -5 11 -20 25 -33 14 -13 25 -19 25 -13 0 5 -11 20 -25
33 -14 13 -25 19 -25 13z" />
    <path d="M648 585 c6 -11 24 -33 41 -49 17 -17 31 -25 31 -20 0 6 -19 28 -41
49 -23 22 -37 31 -31 20z" />
    <path d="M360 513 c0 -5 11 -20 25 -33 14 -13 25 -19 25 -13 0 5 -11 20 -25
33 -14 13 -25 19 -25 13z" />
    <path d="M758 465 c6 -11 24 -33 41 -49 17 -17 31 -25 31 -20 0 6 -19 28 -41
49 -23 22 -37 31 -31 20z" />
    <path d="M470 393 c0 -5 11 -20 25 -33 14 -13 25 -19 25 -13 0 5 -11 20 -25
33 -14 13 -25 19 -25 13z" />
    <path d="M870 344 c0 -6 14 -23 31 -40 17 -16 37 -42 46 -57 8 -16 17 -26 20
-23 3 3 -4 20 -15 38 -11 18 -34 46 -51 62 -17 17 -31 25 -31 20z" />
    <path d="M590 263 c0 -5 12 -20 26 -34 l27 -24 -11 21 c-6 11 -18 26 -26 34
-9 7 -16 8 -16 3z" />
    <path d="M960 185 c0 -15 4 -24 10 -20 6 3 10 12 10 20 0 8 -4 17 -10 20 -6 4
-10 -5 -10 -20z" />
    <path d="M690 153 c0 -5 17 -25 38 -45 20 -20 47 -41 59 -47 12 -6 26 -11 32
-11 6 0 11 5 11 10 0 6 -9 10 -20 10 -12 0 -43 21 -70 46 -28 26 -50 43 -50
37z" />
    <path d="M950 130 c-6 -12 -9 -24 -7 -27 3 -2 11 5 17 17 6 12 9 24 7 27 -3 2
-11 -5 -17 -17z" />
    <path d="M873 73 c-13 -2 -23 -9 -23 -14 0 -5 8 -9 18 -9 10 0 27 7 38 15 14
10 15 14 4 13 -8 0 -25 -3 -37 -5z" />
  </g>
  <g transform="translate(0.000000,180.000000) scale(0.100000,-0.100000)" fill="#f5abff" stroke="none">
    <path d="M782 1729 c-24 -12 -41 -23 -39 -25 2 -2 22 6 45 17 23 12 42 23 42
25 0 2 -1 4 -2 4 -2 0 -22 -10 -46 -21z" />
    <path d="M854 1741 c4 -6 14 -11 23 -11 9 0 34 -19 56 -42 l39 -41 -16 31 c-9
18 -26 38 -39 46 -12 8 -33 17 -46 21 -16 5 -21 4 -17 -4z" />
    <path d="M686 1641 l-30 -36 34 32 c19 18 32 34 29 36 -2 2 -17 -12 -33 -32z" />
    <path d="M962 1620 c0 -14 2 -19 5 -12 2 6 2 18 0 25 -3 6 -5 1 -5 -13z" />
    <path d="M955 1579 c-4 -6 -5 -12 -2 -15 2 -3 7 2 10 11 4 8 5 15 2 15 -2 0
-7 -5 -10 -11z" />
    <path d="M571 1516 l-35 -41 39 37 c22 21 37 39 35 41 -3 2 -20 -15 -39 -37z" />
    <path d="M935 1539 c-4 -6 -5 -12 -2 -15 2 -3 7 2 10 11 4 8 5 15 2 15 -2 0
-7 -5 -10 -11z" />
    <path d="M860 1455 c-13 -14 -22 -27 -19 -29 2 -2 14 10 27 25 13 16 22 29 20
29 -3 0 -15 -11 -28 -25z" />
    <path d="M454 1388 l-29 -33 33 29 c17 17 32 31 32 33 0 2 -1 3 -3 3 -2 0 -16
-15 -33 -32z" />
    <path d="M750 1335 c-13 -14 -22 -27 -19 -29 2 -2 14 10 27 25 13 16 22 29 20
29 -3 0 -15 -11 -28 -25z" />
    <path d="M344 1268 l-29 -33 33 29 c17 17 32 31 32 33 0 2 -1 3 -3 3 -2 0 -16
-15 -33 -32z" />
    <path d="M640 1215 c-13 -14 -22 -27 -19 -29 2 -2 14 10 27 25 13 16 22 29 20
29 -3 0 -15 -11 -28 -25z" />
    <path d="M234 1148 l-29 -33 33 29 c17 17 32 31 32 33 0 2 -1 3 -3 3 -2 0 -16
-15 -33 -32z" />
    <path d="M530 1095 c-13 -14 -22 -27 -19 -29 2 -2 14 10 27 25 13 16 22 29 20
29 -3 0 -15 -11 -28 -25z" />
    <path d="M126 1031 l-30 -36 34 32 c19 18 32 34 29 36 -2 2 -17 -12 -33 -32z" />
    <path d="M419 973 l-24 -28 28 24 c15 14 27 26 27 28 0 2 -1 3 -3 3 -2 0 -14
-12 -28 -27z" />
    <path d="M72 965 c-7 -14 -12 -31 -12 -38 1 -7 7 3 16 22 8 19 13 36 11 38 -2
1 -9 -8 -15 -22z" />
    <path d="M360 901 c0 -6 4 -13 10 -16 6 -3 7 1 4 9 -3 9 -8 16 -10 16 -2 0 -4
-4 -4 -9z" />
    <path d="M61 869 c-1 -8 6 -24 15 -35 l15 -19 -9 20 c-5 11 -12 27 -15 35 l-5
15 -1 -16z" />
    <path d="M420 834 c0 -6 17 -26 38 -45 l37 -34 -35 40 c-19 22 -36 42 -37 44
-2 2 -3 0 -3 -5z" />
    <path d="M161 734 c13 -17 26 -30 28 -27 3 2 -8 16 -24 31 l-28 27 24 -31z" />
    <path d="M540 697 c0 -2 15 -16 33 -33 l32 -29 -29 33 c-17 17 -31 32 -33 32
-2 0 -3 -1 -3 -3z" />
    <path d="M271 614 c13 -17 26 -30 28 -27 3 2 -8 16 -24 31 l-28 27 24 -31z" />
    <path d="M650 577 c0 -2 15 -16 33 -33 l32 -29 -29 33 c-17 17 -31 32 -33 32
-2 0 -3 -1 -3 -3z" />
    <path d="M381 494 c13 -17 26 -30 28 -27 3 2 -8 16 -24 31 l-28 27 24 -31z" />
    <path d="M760 457 c0 -2 15 -16 33 -33 l32 -29 -29 33 c-17 17 -31 32 -33 32
-2 0 -3 -1 -3 -3z" />
    <path d="M491 374 c13 -17 26 -30 28 -27 3 2 -8 16 -24 31 l-28 27 24 -31z" />
    <path d="M870 344 c0 -6 15 -23 33 -40 l32 -29 -30 35 c-16 19 -31 37 -32 39
-2 2 -3 0 -3 -5z" />
    <path d="M600 255 c13 -14 26 -25 28 -25 3 0 -5 11 -18 25 -13 14 -26 25 -28
25 -3 0 5 -11 18 -25z" />
    <path d="M940 264 c0 -6 7 -19 16 -30 l15 -19 -12 25 c-6 14 -13 27 -15 29 -2
2 -4 0 -4 -5z" />
    <path d="M960 176 c0 -22 -9 -45 -26 -65 -14 -17 -41 -35 -60 -40 -21 -6 -47
-6 -66 0 -18 5 -52 28 -77 51 l-46 43 45 -48 c26 -27 60 -52 80 -58 26 -8 45
-7 75 3 25 8 48 25 62 47 13 19 23 49 23 67 0 19 -2 34 -5 34 -3 0 -5 -15 -5
-34z" />
  </g>
  <g transform="translate(0.000000,180.000000) scale(0.100000,-0.100000)" fill="#fad5fe" stroke="none">
    <path d="M833 1743 c9 -2 23 -2 30 0 6 3 -1 5 -18 5 -16 0 -22 -2 -12 -5z" />
    <path d="M895 1728 c11 -6 27 -16 35 -22 9 -6 5 -1 -8 12 -13 12 -28 22 -35
22 -7 0 -3 -6 8 -12z" />
    <path d="M724 1688 l-19 -23 23 19 c12 11 22 21 22 23 0 1 -2 3 -3 3 -2 0 -12
-10 -23 -22z" />
    <path d="M960 1650 c0 -7 3 -10 7 -7 3 4 3 10 0 14 -4 3 -7 0 -7 -7z" />
    <path d="M960 1590 c0 -7 3 -10 7 -7 3 4 3 10 0 14 -4 3 -7 0 -7 -7z" />
    <path d="M614 1568 l-19 -23 23 19 c12 11 22 21 22 23 0 1 -2 3 -3 3 -2 0 -12
-10 -23 -22z" />
    <path d="M946 1553 l-7 -18 12 12 c7 7 10 15 7 18 -3 3 -9 -2 -12 -12z" />
    <path d="M919 1513 l-14 -18 18 14 c9 7 17 15 17 17 0 2 -2 4 -4 4 -2 0 -10
-8 -17 -17z" />
    <path d="M504 1448 l-19 -23 23 19 c12 11 22 21 22 23 0 1 -2 3 -3 3 -2 0 -12
-10 -23 -22z" />
    <path d="M819 1403 l-24 -28 28 24 c15 14 27 26 27 28 0 2 -1 3 -3 3 -2 0 -14
-12 -28 -27z" />
    <path d="M394 1328 l-19 -23 23 19 c12 11 22 21 22 23 0 1 -2 3 -3 3 -2 0 -12
-10 -23 -22z" />
    <path d="M709 1283 l-24 -28 28 24 c15 14 27 26 27 28 0 2 -1 3 -3 3 -2 0 -14
-12 -28 -27z" />
    <path d="M284 1208 l-19 -23 23 19 c12 11 22 21 22 23 0 1 -2 3 -3 3 -2 0 -12
-10 -23 -22z" />
    <path d="M599 1163 l-24 -28 28 24 c15 14 27 26 27 28 0 2 -1 3 -3 3 -2 0 -14
-12 -28 -27z" />
    <path d="M169 1083 l-24 -28 28 24 c15 14 27 26 27 28 0 2 -1 3 -3 3 -2 0 -14
-12 -28 -27z" />
    <path d="M489 1043 l-24 -28 28 24 c15 14 27 26 27 28 0 2 -1 3 -3 3 -2 0 -14
-12 -28 -27z" />
    <path d="M84 988 c-4 -7 -3 -8 4 -4 7 4 12 9 12 12 0 2 -2 4 -4 4 -3 0 -8 -5
-12 -12z" />
    <path d="M60 940 c0 -7 3 -10 7 -7 3 4 3 10 0 14 -4 3 -7 0 -7 -7z" />
    <path d="M374 918 l-19 -23 23 19 c12 11 22 21 22 23 0 1 -2 3 -3 3 -2 0 -12
-10 -23 -22z" />
    <path d="M60 860 c0 -7 3 -10 7 -7 3 4 3 10 0 14 -4 3 -7 0 -7 -7z" />
    <path d="M405 850 c10 -11 20 -20 23 -20 3 0 -3 9 -13 20 -10 11 -20 20 -23
20 -3 0 3 -9 13 -20z" />
    <path d="M70 835 c0 -3 2 -5 5 -5 3 0 5 2 5 5 0 3 -2 5 -5 5 -3 0 -5 -2 -5 -5z" />
    <path d="M95 800 c3 -5 8 -10 11 -10 3 0 2 5 -1 10 -3 6 -8 10 -11 10 -3 0 -2
-4 1 -10z" />
    <path d="M515 730 c10 -11 20 -20 23 -20 3 0 -3 9 -13 20 -10 11 -20 20 -23
20 -3 0 3 -9 13 -20z" />
    <path d="M200 685 c13 -14 26 -25 28 -25 3 0 -5 11 -18 25 -13 14 -26 25 -28
25 -3 0 5 -11 18 -25z" />
    <path d="M625 610 c10 -11 20 -20 23 -20 3 0 -3 9 -13 20 -10 11 -20 20 -23
20 -3 0 3 -9 13 -20z" />
    <path d="M310 565 c13 -14 26 -25 28 -25 3 0 -5 11 -18 25 -13 14 -26 25 -28
25 -3 0 5 -11 18 -25z" />
    <path d="M735 490 c10 -11 20 -20 23 -20 3 0 -3 9 -13 20 -10 11 -20 20 -23
20 -3 0 3 -9 13 -20z" />
    <path d="M420 445 c13 -14 26 -25 28 -25 3 0 -5 11 -18 25 -13 14 -26 25 -28
25 -3 0 5 -11 18 -25z" />
    <path d="M850 365 c13 -14 26 -25 28 -25 3 0 -5 11 -18 25 -13 14 -26 25 -28
25 -3 0 5 -11 18 -25z" />
    <path d="M530 325 c13 -14 26 -25 28 -25 3 0 -5 11 -18 25 -13 14 -26 25 -28
25 -3 0 5 -11 18 -25z" />
    <path d="M935 270 c3 -5 8 -10 11 -10 3 0 2 5 -1 10 -3 6 -8 10 -11 10 -3 0
-2 -4 1 -10z" />
    <path d="M950 245 c0 -3 2 -5 5 -5 3 0 5 2 5 5 0 3 -2 5 -5 5 -3 0 -5 -2 -5
-5z" />
    <path d="M960 220 c0 -7 3 -10 7 -7 3 4 3 10 0 14 -4 3 -7 0 -7 -7z" />
    <path d="M650 195 c13 -14 26 -25 28 -25 3 0 -5 11 -18 25 -13 14 -26 25 -28
25 -3 0 5 -11 18 -25z" />
    <path d="M960 150 c0 -7 3 -10 7 -7 3 4 3 10 0 14 -4 3 -7 0 -7 -7z" />
    <path d="M911 84 c-19 -13 -29 -24 -23 -24 6 0 24 11 39 25 15 13 26 24 23 24
-3 0 -20 -12 -39 -25z" />
    <path d="M765 80 c3 -5 8 -10 11 -10 3 0 2 5 -1 10 -3 6 -8 10 -11 10 -3 0 -2
-4 1 -10z" />
    <path d="M793 63 c4 -3 10 -3 14 0 3 4 0 7 -7 7 -7 0 -10 -3 -7 -7z" />
    <path d="M828 53 c6 -2 18 -2 25 0 6 3 1 5 -13 5 -14 0 -19 -2 -12 -5z" />
  </g>
  <g transform="translate(0.000000,180.000000) scale(0.100000,-0.100000)" fill="#f8c0ff" stroke="none">
    <path d="M790 1735 c0 -3 2 -5 5 -5 3 0 5 2 5 5 0 3 -2 5 -5 5 -3 0 -5 -2 -5
-5z" />
    <path d="M880 1735 c0 -3 2 -5 5 -5 3 0 5 2 5 5 0 3 -2 5 -5 5 -3 0 -5 -2 -5
-5z" />
    <path d="M770 1725 c0 -3 2 -5 5 -5 3 0 5 2 5 5 0 3 -2 5 -5 5 -3 0 -5 -2 -5
-5z" />
    <path d="M900 1725 c0 -3 2 -5 5 -5 3 0 5 2 5 5 0 3 -2 5 -5 5 -3 0 -5 -2 -5
-5z" />
    <path d="M950 1675 c0 -3 2 -5 5 -5 3 0 5 2 5 5 0 3 -2 5 -5 5 -3 0 -5 -2 -5
-5z" />
    <path d="M960 1640 c0 -7 3 -10 7 -7 3 4 3 10 0 14 -4 3 -7 0 -7 -7z" />
    <path d="M644 1598 l-19 -23 23 19 c12 11 22 21 22 23 0 1 -2 3 -3 3 -2 0 -12
-10 -23 -22z" />
    <path d="M960 1600 c0 -7 3 -10 7 -7 3 4 3 10 0 14 -4 3 -7 0 -7 -7z" />
    <path d="M950 1565 c0 -3 2 -5 5 -5 3 0 5 2 5 5 0 3 -2 5 -5 5 -3 0 -5 -2 -5
-5z" />
    <path d="M940 1545 c0 -3 2 -5 5 -5 3 0 5 2 5 5 0 3 -2 5 -5 5 -3 0 -5 -2 -5
-5z" />
    <path d="M894 1488 l-19 -23 23 19 c12 11 22 21 22 23 0 1 -2 3 -3 3 -2 0 -12
-10 -23 -22z" />
    <path d="M529 1473 l-14 -18 18 14 c9 7 17 15 17 17 0 2 -2 4 -4 4 -2 0 -10
-8 -17 -17z" />
    <path d="M784 1368 l-19 -23 23 19 c12 11 22 21 22 23 0 1 -2 3 -3 3 -2 0 -12
-10 -23 -22z" />
    <path d="M419 1353 l-14 -18 18 14 c9 7 17 15 17 17 0 2 -2 4 -4 4 -2 0 -10
-8 -17 -17z" />
    <path d="M674 1248 l-19 -23 23 19 c12 11 22 21 22 23 0 1 -2 3 -3 3 -2 0 -12
-10 -23 -22z" />
    <path d="M309 1233 l-14 -18 18 14 c9 7 17 15 17 17 0 2 -2 4 -4 4 -2 0 -10
-8 -17 -17z" />
    <path d="M564 1128 l-19 -23 23 19 c12 11 22 21 22 23 0 1 -2 3 -3 3 -2 0 -12
-10 -23 -22z" />
    <path d="M199 1113 l-14 -18 18 14 c9 7 17 15 17 17 0 2 -2 4 -4 4 -2 0 -10
-8 -17 -17z" />
    <path d="M454 1008 l-19 -23 23 19 c12 11 22 21 22 23 0 1 -2 3 -3 3 -2 0 -12
-10 -23 -22z" />
    <path d="M94 998 c-4 -7 -3 -8 4 -4 7 4 12 9 12 12 0 2 -2 4 -4 4 -3 0 -8 -5
-12 -12z" />
    <path d="M70 965 c0 -3 2 -5 5 -5 3 0 5 2 5 5 0 3 -2 5 -5 5 -3 0 -5 -2 -5 -5z" />
    <path d="M60 935 c0 -3 2 -5 5 -5 3 0 5 2 5 5 0 3 -2 5 -5 5 -3 0 -5 -2 -5 -5z" />
    <path d="M360 905 c0 -3 2 -5 5 -5 3 0 5 2 5 5 0 3 -2 5 -5 5 -3 0 -5 -2 -5
-5z" />
    <path d="M370 886 c0 -2 8 -10 18 -17 l17 -14 -14 18 c-7 9 -15 17 -17 17 -2
0 -4 -2 -4 -4z" />
    <path d="M60 865 c0 -3 2 -5 5 -5 3 0 5 2 5 5 0 3 -2 5 -5 5 -3 0 -5 -2 -5 -5z" />
    <path d="M120 775 c13 -14 26 -25 28 -25 3 0 -5 11 -18 25 -13 14 -26 25 -28
25 -3 0 5 -11 18 -25z" />
    <path d="M480 766 c0 -2 8 -10 18 -17 l17 -14 -14 18 c-7 9 -15 17 -17 17 -2
0 -4 -2 -4 -4z" />
    <path d="M235 650 c10 -11 20 -20 23 -20 3 0 -3 9 -13 20 -10 11 -20 20 -23
20 -3 0 3 -9 13 -20z" />
    <path d="M590 646 c0 -2 8 -10 18 -17 l17 -14 -14 18 c-7 9 -15 17 -17 17 -2
0 -4 -2 -4 -4z" />
    <path d="M345 530 c10 -11 20 -20 23 -20 3 0 -3 9 -13 20 -10 11 -20 20 -23
20 -3 0 3 -9 13 -20z" />
    <path d="M700 526 c0 -2 8 -10 18 -17 l17 -14 -14 18 c-7 9 -15 17 -17 17 -2
0 -4 -2 -4 -4z" />
    <path d="M455 410 c10 -11 20 -20 23 -20 3 0 -3 9 -13 20 -10 11 -20 20 -23
20 -3 0 3 -9 13 -20z" />
    <path d="M810 406 c0 -2 8 -10 18 -17 l17 -14 -14 18 c-7 9 -15 17 -17 17 -2
0 -4 -2 -4 -4z" />
    <path d="M565 290 c10 -11 20 -20 23 -20 3 0 -3 9 -13 20 -10 11 -20 20 -23
20 -3 0 3 -9 13 -20z" />
    <path d="M925 280 c3 -5 8 -10 11 -10 3 0 2 5 -1 10 -3 6 -8 10 -11 10 -3 0
-2 -4 1 -10z" />
    <path d="M960 210 c0 -7 3 -10 7 -7 3 4 3 10 0 14 -4 3 -7 0 -7 -7z" />
    <path d="M670 176 c0 -2 8 -10 18 -17 l17 -14 -14 18 c-7 9 -15 17 -17 17 -2
0 -4 -2 -4 -4z" />
    <path d="M960 155 c0 -3 2 -5 5 -5 3 0 5 2 5 5 0 3 -2 5 -5 5 -3 0 -5 -2 -5
-5z" />
    <path d="M950 125 c0 -3 2 -5 5 -5 3 0 5 2 5 5 0 3 -2 5 -5 5 -3 0 -5 -2 -5
-5z" />
    <path d="M760 85 c0 -3 2 -5 5 -5 3 0 5 2 5 5 0 3 -2 5 -5 5 -3 0 -5 -2 -5 -5z" />
    <path d="M900 75 c0 -3 2 -5 5 -5 3 0 5 2 5 5 0 3 -2 5 -5 5 -3 0 -5 -2 -5 -5z" />
    <path d="M800 65 c0 -3 2 -5 5 -5 3 0 5 2 5 5 0 3 -2 5 -5 5 -3 0 -5 -2 -5 -5z" />
    <path d="M880 65 c0 -3 2 -5 5 -5 3 0 5 2 5 5 0 3 -2 5 -5 5 -3 0 -5 -2 -5 -5z" />
  </g>
</svg>